<svg xmlns="http://www.w3.org/2000/svg" viewBox="0 0 97.87 46.05"><defs><style>.cls-1{fill:#002f87;fill-rule:evenodd;}.cls-2{fill:#fff;}.cls-3{fill:#ff8300;}</style></defs><title>Ativo 178xxxhdpi</title><g id="Camada_2" data-name="Camada 2"><g id="Camada_5" data-name="Camada 5"><path class="cls-1" d="M51.31,23.93c6-23.07-6.76-25.88-15-23-5.62,2-7.11,6.22-14,7-6,.67-12.72,0-18.34,7C-2.24,22.55-.94,38.48,6.36,44.47c6.91,5.68,15.27-6.19,25.16-.95C38.12,47,48.56,34.4,51.31,23.93Z"/><path class="cls-2" d="M39.46,21.66c-.21-3.84-3.46-6.27-7.14-6.43a10.14,10.14,0,0,0-8.88,4.11c-1.86,2.71-2.37,6.88-.31,9.62,2.36,3.15,7.11,3.28,10.51,2A9.25,9.25,0,0,0,39.46,21.66Zm-7,1.95c-.32,1.38-1.57,3.61-3.29,2.57L29,26l-.16-.22c-.71-1.33,0-3.8,1-4.77.61-.56,1.81-.83,2.38-.06A3.49,3.49,0,0,1,32.49,23.61Z"/><path class="cls-2" d="M57.38,20.58c-.34-4.74-5-6.53-9-4.53.41-2,1-4,1.23-6l0-.24-.09-.23-.15-.22-.2-.16a2.08,2.08,0,0,0-1-.17H44.87a1.65,1.65,0,0,0-1.93,1.54L40.46,22.65c-.38,1.85-.92,3.87-.29,5.72a4.76,4.76,0,0,0,3.18,2.9,11.65,11.65,0,0,0,9.58-1.39A10.56,10.56,0,0,0,57.38,20.58Zm-7.64,4.29c-.4.62-2.06,2.33-2.89,1.25-.3-.39-.13-1.14-.07-1.56a6.23,6.23,0,0,1,.95-2.78,2.39,2.39,0,0,1,1.45-1C51.45,20.33,50.32,24,49.74,24.87Z"/><path class="cls-2" d="M23.65,11.66l0-.24-.08-.24L23.41,11a4.28,4.28,0,0,0-2.25-.82,17.08,17.08,0,0,0-3.64-.27,15.61,15.61,0,0,0-8.4,2.35A11.2,11.2,0,0,0,4.38,19c-1.12,4.72.52,9.81,5.22,11.77a13.07,13.07,0,0,0,4.09.92,20.93,20.93,0,0,0,3.45-.08c1.18-.12,2.92-.2,3.92-.93l.16-.17.13-.2a3.89,3.89,0,0,0-.07-2,9.35,9.35,0,0,0-.36-2.23l-.15-.23-.22-.18-.23-.12a3.61,3.61,0,0,0-1.71.23,10.89,10.89,0,0,1-3.12.19,4.54,4.54,0,0,1-4.12-2.69,5.71,5.71,0,0,1,3.94-7.38,10.25,10.25,0,0,1,3.22-.25c1,.07,2.16.62,3.14.47l.24-.08.21-.13.18-.17A6.32,6.32,0,0,0,23,14a11.72,11.72,0,0,0,.69-2.28Z"/><path class="cls-2" d="M97.87,11.37c-.3-2.87-4-3.61-5.92-1.85a3.26,3.26,0,0,0,1.66,5.7A3.68,3.68,0,0,0,97.87,11.37Z"/><path class="cls-2" d="M97,16.55l0-.23-.1-.22-.14-.2-.19-.15a1.84,1.84,0,0,0-1-.19H92.7c-1.06,0-2-.06-2.31,1.16-.83,3.37-1.3,6.87-1.94,10.27a11.94,11.94,0,0,0-.56,3.48l.09.26.15.23.21.18a2.21,2.21,0,0,0,1.19.19h2.84c1,0,1.8-.08,2.07-1.22.78-3.33,1.27-6.76,1.9-10.12A28.71,28.71,0,0,0,97,16.56Z"/><path class="cls-2" d="M75.17,16.76a2.44,2.44,0,0,1-.1-.24l-.15-.22-.19-.18L74.49,16c-4.64-1.39-10.64-1.17-14.23,2.51-2.78,2.85-4.22,8.68-1,11.75a5.9,5.9,0,0,0,7.91-.19,1.27,1.27,0,0,0,.38,1l.2.14.23.09a12.79,12.79,0,0,0,2.55,0,5.47,5.47,0,0,0,2.21-.15L73,31l.17-.2a4.53,4.53,0,0,0,.23-1.94,35.12,35.12,0,0,1,.37-3.7c.15-1,.36-2,.55-3,.15-.81.31-1.62.46-2.43A8.15,8.15,0,0,0,75.17,16.76ZM65.3,26.2c-1.46,0-.9-2.47-.58-3.24A3.55,3.55,0,0,1,68,20.51C67.73,21.88,67.49,26.11,65.3,26.2Z"/><path class="cls-2" d="M88.39,16.74l0-.22-.11-.22-.17-.19-.2-.13c-2.94-1.18-7-1.18-9.76.61-2,1.3-3.26,4.05-2.08,6.33a5.48,5.48,0,0,0,2.35,2.22c.85.47,2,.67,2.74,1.36a4,4,0,0,1-2.18-.05,15.14,15.14,0,0,1-2.2-.68,1.81,1.81,0,0,0-1-.2l-.25.08-.22.15-.16.2a10.41,10.41,0,0,0-.63,1.75A6.75,6.75,0,0,0,74,29.51l0,.25.08.23A3,3,0,0,0,75.78,31a13.63,13.63,0,0,0,4.29.66,10.8,10.8,0,0,0,4.56-.9,5.43,5.43,0,0,0,3.23-6,4.32,4.32,0,0,0-1.44-2.3c-1.21-1-2.83-1.2-4.08-2.11,1.42-.36,2.63.35,4,.47h.25l.25-.09L87,20.6a5.13,5.13,0,0,0,.78-1.9A12.2,12.2,0,0,0,88.39,17v-.21Z"/><path class="cls-3" d="M22.94,11.88a.43.43,0,0,0-.2-.61l-.1,0a13.63,13.63,0,0,0-4.58-.7,15.94,15.94,0,0,0-7.52,1.62A10.65,10.65,0,0,0,4.7,22C4.7,28.36,9.43,31,14.77,31a17.92,17.92,0,0,0,5.66-.79.52.52,0,0,0,.37-.66l-.44-3.13c-.07-.35-.39-.38-.65-.3a11.86,11.86,0,0,1-3.5.47c-3.52,0-5.78-1.85-5.78-5.11a6.2,6.2,0,0,1,2.79-5.47,8.17,8.17,0,0,1,4.49-1.11,13.2,13.2,0,0,1,3.48.47.5.5,0,0,0,.71-.33l.84-2.58Z"/><path class="cls-3" d="M31.88,15.88q-.64,0-1.26.06a8.7,8.7,0,0,0-7.88,6.6,9.1,9.1,0,0,0-.26,2.18,7,7,0,0,0,.26,2c.83,3,3.59,4.37,6.59,4.37h0c.42,0,.85,0,1.26-.06,4.65-.47,8.19-3.57,8.19-8.93C38.81,18.2,35.73,15.88,31.88,15.88ZM30.62,27a2.26,2.26,0,0,1-.53.06h0c-1.26,0-2.11-.79-2.11-2.41,0-1.45.66-4.28,2.67-4.75a2.73,2.73,0,0,1,.59-.07c1.49,0,2.08,1.12,2.08,2.47C33.29,24,32.5,26.6,30.62,27Z"/><path class="cls-3" d="M74.11,16.57a18.63,18.63,0,0,0-4.84-.69,16.1,16.1,0,0,0-3.06.28c-5.61,1.1-8.08,5.27-8.08,9.5C58.13,29,60.28,31,63,31a5.39,5.39,0,0,0,3.23-1,6.18,6.18,0,0,0,1.67-1.9h.06c0,.66-.06,1.33-.11,2a.48.48,0,0,0,.45.56h3.8c.37,0,.56-.16.59-.58a37.39,37.39,0,0,1,.56-5.94l1.3-6.85A.56.56,0,0,0,74.11,16.57Zm-5.78,5.74c-.46,2.62-1.31,3.81-2.12,4.29a1.89,1.89,0,0,1-.94.26c-.85,0-1.59-.67-1.59-2.11a5.33,5.33,0,0,1,2.53-4.5,3.3,3.3,0,0,1,1.59-.41,5.32,5.32,0,0,1,.94.09Z"/><path class="cls-3" d="M52,15.88a7.23,7.23,0,0,0-3.32.79,5.66,5.66,0,0,0-1.14.76h-.06l1.2-5.76L49,10.1a.34.34,0,0,0-.32-.44H44.26a.65.65,0,0,0-.57.47L40.94,23.57a15,15,0,0,0-.38,3c0,2.61,1.73,4.44,5.9,4.44a12.46,12.46,0,0,0,2.17-.18,9.58,9.58,0,0,0,8.11-9.72C56.74,18.14,55,15.88,52,15.88ZM48.63,26.81a2.73,2.73,0,0,1-1.11.26,1.38,1.38,0,0,1-1.47-1.38,5,5,0,0,1,.15-1.56l0-.38c.38-1.95,1.32-3.13,2.38-3.54a2.34,2.34,0,0,1,.86-.16c1,0,1.73.82,1.73,2.11A5.4,5.4,0,0,1,48.63,26.81Z"/><path class="cls-3" d="M94.55,9.22a2.91,2.91,0,0,0-3.08,2.91A2.42,2.42,0,0,0,94,14.59h0a2.9,2.9,0,0,0,3.17-2.87A2.45,2.45,0,0,0,94.55,9.22Z"/><path class="cls-3" d="M95.84,16.22H91.65a.59.59,0,0,0-.59.51L88.54,30.07c-.08.4.15.6.51.6h4.09a.61.61,0,0,0,.62-.54L96.3,16.68C96.34,16.43,96.16,16.22,95.84,16.22Z"/><path class="cls-3" d="M87.45,16.53a12.33,12.33,0,0,0-4-.65c-4.17,0-7.2,1.91-7.2,5.26,0,2.17,2,3.33,3.73,4,1.32.51,1.83.88,1.83,1.38s-.42.73-1.44.73a12.17,12.17,0,0,1-4.21-1c-.27-.09-.49,0-.59.35l-.9,2.67c-.14.36,0,.54.29.7A11.22,11.22,0,0,0,79.8,31c4.35.08,7.52-1.8,7.52-5.29,0-2.56-2.41-3.58-3.88-4.12-1.27-.46-1.88-.91-1.88-1.26,0-.5.59-.73,1.53-.73a9.23,9.23,0,0,1,3,.5c.34.13.52,0,.63-.31l.94-2.76C87.78,16.83,87.76,16.62,87.45,16.53Z"/><path class="cls-2" d="M20,35.54c-.52,0-1.07.39-1.64,1.18a3.91,3.91,0,0,1,.13-1.48c.07-.32.46-1.16.24-1.46s-.83.06-1,.36a5.16,5.16,0,0,0-.27,1.66c-.07.52-.86,2.57-.46,2.89.71.59,2-1.65,2.4-2,.13.38-.51,3.52.7,2.74.8-.51.36-3,.3-3.78A1,1,0,0,0,20,35.54Z"/><path class="cls-2" d="M8.56,34.08a3.42,3.42,0,0,0-2.8,2.24,1.78,1.78,0,0,0,1.57,2.45A3,3,0,0,0,9.9,36.89C10.33,35.82,10,34.08,8.56,34.08ZM9,36.35a1.8,1.8,0,0,1-1.1,1.47c-.7.22-1.09-.44-1-1.09a2.17,2.17,0,0,1,1-1.39C8.7,35.09,9.05,35.69,9,36.35Z"/><path class="cls-2" d="M34.11,33.15a.55.55,0,0,0-.38-.13,1.13,1.13,0,0,0-.53.14.71.71,0,0,0-.33.56.38.38,0,0,0,0,.27.62.62,0,0,0,.52.28.68.68,0,0,0,.31-.08.9.9,0,0,0,.3-.29.86.86,0,0,0,.19-.4A.32.32,0,0,0,34.11,33.15Z"/><path class="cls-2" d="M24,36.05a1.75,1.75,0,0,0,0-.51,2.85,2.85,0,0,0-.2-.79,2.59,2.59,0,0,0-.19-.33,1,1,0,0,0-.82-.42.79.79,0,0,0-.38.09.78.78,0,0,0-.28.29,5,5,0,0,1-.44.52,3.07,3.07,0,0,0-.49.77,2,2,0,0,0-.17.57,1.5,1.5,0,0,0,.66,1.69.89.89,0,0,0,.49.12l.23,0a.86.86,0,0,0,.44-.2,4,4,0,0,0,.95-1.19A2.22,2.22,0,0,0,24,36.05Zm-1,.16c-.07.41-.27.62-.6.62h0l-.17,0q-.5-.12-.42-.54a1.37,1.37,0,0,1,.37-.7,2.22,2.22,0,0,1,.23-.22.49.49,0,0,1,.28-.14s.06,0,.07,0A1.24,1.24,0,0,1,23,36.21Z"/><path class="cls-2" d="M33.55,35c-1.11-.54-1.3,1.38-1.42,2s-.56,2,.68,1.71c.23,0,.33-1.57.4-1.8C33.33,36.49,34,35.24,33.55,35Z"/><path class="cls-2" d="M36.75,35c-.63,0-1.06.7-1.4,1.14,0,0,0-.07-.08-.13,0-.35.56-1.46-.38-1.14-.66.23-.53,1.56-.61,2.09s-.57,2.22.51,1.52c.73-.47.91-1.73,1.56-2.34,0,.79-.18,1.56-.18,2.35,0,.34-.12.51.24.62a.66.66,0,0,0,.67-.28,5.49,5.49,0,0,0,.21-1.93A3.81,3.81,0,0,0,37.05,35,1,1,0,0,0,36.75,35Z"/><path class="cls-2" d="M16.18,34.29a2.26,2.26,0,0,0-2.74.24c-1.21,1-.07,1.8.91,2.27.46.22,1.13.41.75,1a1.24,1.24,0,0,1-1.27.45c-.43-.16-.37-.69-.88-.56s-.52.75-.22,1.1c.71.86,2.27.38,3-.25,1.11-1,.58-1.88-.56-2.45-.26-.13-1.19-.4-1.05-.9s1.1-.19,1.43,0,.74.53,1.09.15S16.56,34.48,16.18,34.29Z"/><path class="cls-2" d="M27.73,36.58c.73-1.33-.65-1.83-1.72-1.95-.37-.19.26-.94-.67-.7-.65.16-.38.8-.8,1.12-.09.11,0,.25,0,.37a4,4,0,0,1-.17.76c-.15.52-.3,1-.43,1.57-.2.8-.62,2.18-.28,3a.65.65,0,0,0,.8.41c.47-.12.31-.22.24-.59a4.79,4.79,0,0,1,.17-2.65C25.85,37.64,27.2,37.55,27.73,36.58Zm-.89-.52c-.25.83-2,1.5-1.48.14.14-.34.32-.68.7-.73S27,35.67,26.84,36.06Z"/><path class="cls-2" d="M29.94,34.64h0c-.37-.19.26-.94-.67-.7-.65.16-.37.8-.8,1.12-.09.11,0,.25,0,.37a3.34,3.34,0,0,1-.17.76c-.15.52-.3,1-.43,1.56-.2.8-.62,2.19-.28,3a.66.66,0,0,0,.81.41c.47-.12.3-.22.24-.59a4.78,4.78,0,0,1,.16-2.65c1.09-.28,2.74-.4,3-1.75C32.05,35,30.8,34.74,29.94,34.64Zm.8,1.42c-.25.83-2,1.5-1.47.14.13-.34.31-.68.69-.73S30.86,35.67,30.74,36.06Z"/><path class="cls-2" d="M41.47,34.4A2.71,2.71,0,0,0,38,36a1.33,1.33,0,0,0,.54,1.51c.5.24,1-.35,1.39-.22s-.22,2.78-.46,3c-.7.52-.92-.7-1.38-.87-.92-.33-.57.92-.21,1.24a1.74,1.74,0,0,0,2.14.08,2.56,2.56,0,0,0,.66-1.7c.09-.67.07-1.35.18-2C40.93,36.43,41.86,34.62,41.47,34.4Zm-1.16,1c-.09.55-1.23,2.25-1.43,1C38.72,35.38,40.45,34.52,40.31,35.39Z"/><path class="cls-2" d="M76.79,35c-.64,0-1.07.7-1.41,1.14,0,0,0-.07-.08-.13.06-.35.56-1.46-.38-1.14-.66.23-.53,1.56-.61,2.09s-.56,2.22.52,1.52c.72-.47.9-1.73,1.55-2.34,0,.79-.17,1.56-.18,2.35,0,.34-.12.51.24.62a.66.66,0,0,0,.67-.28,5.72,5.72,0,0,0,.22-1.93A3.81,3.81,0,0,0,77.09,35,1,1,0,0,0,76.79,35Z"/><path class="cls-2" d="M79.77,35c-1.11-.54-1.3,1.38-1.43,2s-.55,2,.69,1.71c.23,0,.33-1.57.4-1.8C79.55,36.49,80.26,35.25,79.77,35Z"/><path class="cls-2" d="M86.62,34.81c-.88-.47-1.81.75-2.34,1.25a8.06,8.06,0,0,1,0-1.3l-.19-.22c-1.08-.48-1.6,1.18-2.25,1.69-.21-.42.63-2.18-.75-1.47-.7.35-.57,1.55-.69,2.2s-.56,2.62.72,1.94c.77-.41,1.21-1.81,1.72-2.5.11.62-1,2.77.29,2.54.64-.11.86-.89,1.14-1.36.18-.3.77-1.54,1.17-1.54a7.35,7.35,0,0,1-.2,2,17.21,17.21,0,0,0-.54,1.81c1.13.7,1.59-1.21,1.77-1.94C86.56,37.49,87.1,35.07,86.62,34.81Z"/><path class="cls-2" d="M80.45,33.5c.11-.75-1.38-.54-1.36.22C79.1,34.65,80.34,34.19,80.45,33.5Z"/><path class="cls-2" d="M91.23,35.73a1.24,1.24,0,0,0-.66-1.45c-.54-.2-2-.12-2.38.42-.11.17-.13.69.06.82s.49,0,.7-.11c.42-.15,2.08-.48,1.27.5,0,.06-1.47.1-1.67.18a2.4,2.4,0,0,0-1.29,1.14,1.34,1.34,0,0,0,0,1.34c.37.52.95.45,1.51.62.1,0,.29,0,.38.06s.19.35.34.41c.47.2.65-.43.76-.77A20.85,20.85,0,0,0,91.23,35.73ZM90,37.2a2.44,2.44,0,0,1-.47,1.12,1.63,1.63,0,0,1-1.38-.26c-.82-.93,1.36-1.24,1.82-1.34A1,1,0,0,1,90,37.2Z"/><path class="cls-2" d="M49.84,33.51c.16-.33-.3-.47-.53-.44s-.52.34-.65.63c-.41.86-.41,1-1.31,1.43-1.05.51-3,1.56-1.73,2.94a2.91,2.91,0,0,0,.82.62c.29.11.61,0,.88.06s.22.3.56.56a.53.53,0,0,0,.74,0c.18-.25.06-1.08.08-1.42a14.21,14.21,0,0,1,.2-1.58A10.35,10.35,0,0,1,49.84,33.51Zm-2,3.06a10.48,10.48,0,0,0-.25,1.14.89.89,0,0,1-1.12-1c.11-.67,1-.92,1.56-.92A6.89,6.89,0,0,1,47.81,36.57Z"/><path class="cls-2" d="M93.09,32.16c-.82,0-1,1-1,1.62a16.41,16.41,0,0,1-.22,2.33c-.16.88-.49,1.71-.67,2.57-.1.49.17,1,.77.66,1-.5.87-3,1-3.88C93.11,34.83,93.89,32.16,93.09,32.16Z"/><path class="cls-2" d="M52.24,34.53c-1.18-1.61-3.1,1.77-2.42,3C51,39.59,53.47,36.2,52.24,34.53Zm-.6,1.79c-.13.83-1.32.8-1.17,0C50.66,35.24,51.85,35,51.64,36.32Z"/><path class="cls-2" d="M58.28,34.7a2.17,2.17,0,0,0-2.94.52c-.82,1.13.66,1.61,1.43,2,1.24.67-.21,1.74-1,1.22-.33-.22-.15-.59-.65-.46s-.49.72-.22,1.06c.66.8,2.09.38,2.78-.16a1.73,1.73,0,0,0,.75-1.33c0-.48-.52-.76-.91-1s-1.21-.36-1.25-.84.44-.52.8-.46,1,.81,1.47.55S58.68,34.9,58.28,34.7Z"/><path class="cls-2" d="M61.06,34.42c-1.88,0-2.46,2.55-1.73,3.95a1.58,1.58,0,0,0,1.49.86c.39,0,2.17-.42,1.3-1.15a2.29,2.29,0,0,1-1.23.36c-.32-.07-.79-.44-.3-.65.59-.52,1.75-.67,2.11-1.42A1.67,1.67,0,0,0,61.06,34.42Zm.62,1.48c-.1.68-1.56,1.42-1.57.41S61.81,35.12,61.68,35.9Z"/><path class="cls-2" d="M72.58,34.19c-.44,0-1.49.09-1.77.51a.58.58,0,0,0,.26.87c.15,0,2.86-1,1.77.34,0,0-.86,0-.92,0a2.75,2.75,0,0,0-1.12.37,2.06,2.06,0,0,0-1.08,1.48,1.19,1.19,0,0,0,.93,1.3c.3.1.69,0,1,.17s.24.19.39.27c.54.31.65.06.88-.6s.28-1.14.47-1.69C73.76,36.1,74.43,34.19,72.58,34.19Zm0,3a2.45,2.45,0,0,1-.48,1.12,1.6,1.6,0,0,1-1.37-.26c-.83-.93,1.36-1.24,1.82-1.34A1.3,1.3,0,0,1,72.57,37.2Z"/><path class="cls-2" d="M66.3,33.87c-.71,0-.47.64-.34,1.08a2.8,2.8,0,0,1,0,1.74c-.2.57-1.23,2.13-1.55,1-.27-1,.38-2,.28-2.9-.08-.77-.92-.64-1.21,0-.55,1.25-.66,5,1.63,4.14a3.45,3.45,0,0,0,1.8-2.18C67.11,36,67.61,33.87,66.3,33.87Z"/></g></g></svg>